<svg width="33" height="24" viewBox="0 0 33 24" fill="none" xmlns="http://www.w3.org/2000/svg">
    <path d="M27.2705 2.02698C27.2619 2.00991 27.2472 1.99685 27.2299 1.98948C25.2002 1.05265 23.0583 0.384352 20.8579 0.00165084C20.817 -0.00605005 20.7757 0.0137044 20.7554 0.0501999C20.4636 0.582901 20.1991 1.13 19.9622 1.68948C17.5901 1.32721 15.1773 1.32721 12.8056 1.68948C12.5673 1.12866 12.2981 0.581226 11.9997 0.0501999C11.9787 0.0143741 11.9381 -0.00504558 11.8972 0.00165084C9.69642 0.383347 7.55456 1.05165 5.52517 1.98948C5.50786 1.99685 5.49322 2.00957 5.48324 2.02565C1.42512 8.12441 0.313428 14.0728 0.858792 19.9476C0.861787 19.9768 0.87676 20.0032 0.899719 20.0213C3.26285 21.7818 5.90582 23.1257 8.71649 23.9956C8.75709 24.008 8.80068 23.9936 8.8263 23.9595C9.42989 23.1331 9.96494 22.2576 10.4255 21.3428C10.4384 21.3174 10.4398 21.2879 10.4294 21.2611C10.4191 21.2347 10.3978 21.2139 10.3712 21.2042C9.52772 20.8794 8.71117 20.488 7.92923 20.0333C7.90028 20.0163 7.88198 19.9858 7.87998 19.9523C7.87798 19.9188 7.89296 19.8864 7.91958 19.8659C8.08428 19.7424 8.24566 19.6148 8.40438 19.4836C8.43266 19.4601 8.47193 19.4548 8.50554 19.4698C13.6288 21.8226 19.1752 21.8226 24.2376 19.4698C24.2712 19.4538 24.3111 19.4585 24.3401 19.4826C24.4988 19.6145 24.6612 19.7424 24.8262 19.8659C24.8528 19.8864 24.8681 19.9185 24.8665 19.952C24.8645 19.9855 24.8465 20.0163 24.8175 20.0333C24.0373 20.4917 23.2201 20.8828 22.3742 21.2029C22.3476 21.2129 22.3266 21.234 22.3167 21.2608C22.3067 21.2876 22.3083 21.3174 22.3213 21.3425C22.7895 22.2522 23.3235 23.1264 23.9191 23.9578C23.9441 23.9926 23.988 24.0077 24.0289 23.9953C26.8446 23.1284 29.4922 21.7845 31.8584 20.0209C31.8817 20.0039 31.8966 19.9774 31.899 19.9486C32.5518 13.1568 30.8056 7.25723 27.2705 2.02698ZM11.1904 16.3704C9.64784 16.3704 8.3771 14.9461 8.3771 13.197C8.3771 11.4475 9.62322 10.0232 11.1904 10.0232C12.7696 10.0232 14.0284 11.4599 14.0038 13.197C14.0034 14.9461 12.7573 16.3704 11.1904 16.3704ZM21.5919 16.3704C20.0497 16.3704 18.7786 14.9461 18.7786 13.197C18.7786 11.4475 20.0247 10.0232 21.5919 10.0232C23.1715 10.0232 24.4299 11.4599 24.4053 13.197C24.4053 14.9461 23.1715 16.3704 21.5919 16.3704Z" fill="#E5E5E5"/>
</svg>
