<svg width="23" height="24" viewBox="0 0 23 24" fill="none" xmlns="http://www.w3.org/2000/svg">
    <g clip-path="url(#clip0_7_1962)">
        <path d="M3.46497 9.71597C3.70321 10.2235 4.29363 11.2283 4.29363 11.2283L11.0783 0.0103149L4.449 4.63008C4.05539 4.88904 3.73429 5.25158 3.50641 5.6659C2.89527 6.93997 2.88491 8.42119 3.46497 9.71597Z" fill="url(#paint0_linear_7_1962)"/>
        <path d="M0.77183 13.4035C0.927203 15.5788 2.00446 17.5779 3.73428 18.8934L11.0575 24C11.0575 24 6.47921 17.3914 2.60524 10.8243C2.21162 10.1303 1.95267 9.37418 1.82837 8.58696C1.77658 8.23478 1.77658 7.87224 1.82837 7.5097C1.72479 7.69615 1.52798 8.07941 1.52798 8.07941C1.13437 8.87699 0.865054 9.73672 0.740755 10.6172C0.678606 11.5391 0.678606 12.4816 0.77183 13.4035Z" fill="#A0A8D4"/>
        <path d="M19.4581 14.2943C19.2198 13.7868 18.6294 12.782 18.6294 12.782L11.8448 24L18.4637 19.3802C18.8573 19.1213 19.1784 18.7587 19.4063 18.3444C20.0278 17.06 20.0381 15.5788 19.4581 14.2943Z" fill="url(#paint1_linear_7_1962)"/>
        <path d="M22.1512 10.5965C21.9958 8.42124 20.9186 6.4221 19.1888 5.1066L11.8655 0C11.8655 0 16.4438 6.60855 20.3178 13.1757C20.7114 13.8697 20.9704 14.6258 21.0947 15.413C21.1465 15.7652 21.1465 16.1278 21.0947 16.4903C21.1982 16.3038 21.3951 15.9206 21.3951 15.9206C21.7887 15.123 22.058 14.2633 22.1823 13.3828C22.2444 12.4609 22.2444 11.5287 22.1512 10.5965Z" fill="#A0A8D4"/>
        <path d="M3.5064 5.66603C3.73428 5.2517 4.05539 4.88916 4.449 4.6302L11.0679 0.010437L4.28327 11.2284C4.28327 11.2284 3.69285 10.2236 3.45461 9.71609C2.87455 8.42131 2.89527 6.94009 3.5064 5.66603ZM0.77183 13.4036C0.927203 15.5788 2.00446 17.578 3.73428 18.8935L11.0575 24.0001C11.0575 24.0001 6.47921 17.3915 2.60524 10.8244C2.21162 10.1304 1.95267 9.37427 1.82837 8.58704C1.77658 8.23486 1.77658 7.87233 1.82837 7.50979C1.72479 7.69624 1.52798 8.07949 1.52798 8.07949C1.13437 8.87707 0.865054 9.73681 0.740755 10.6173C0.678606 11.5391 0.678606 12.4817 0.77183 13.4036ZM19.4477 14.2944C19.2095 13.7869 18.6191 12.7821 18.6191 12.7821L11.8448 24.0001L18.4637 19.3803C18.8573 19.1214 19.1784 18.7588 19.4063 18.3445C20.0174 17.0704 20.0381 15.5892 19.4477 14.2944ZM22.1408 10.6069C21.9855 8.43167 20.9082 6.43253 19.1784 5.11704L11.8655 0.010437C11.8655 0.010437 16.4438 6.61898 20.3178 13.1861C20.7114 13.8801 20.9704 14.6362 21.0947 15.4235C21.1465 15.7756 21.1465 16.1382 21.0947 16.5007C21.1982 16.3143 21.3951 15.931 21.3951 15.931C21.7887 15.1334 22.058 14.2737 22.1823 13.3933C22.2548 12.461 22.2548 11.5288 22.1616 10.5965L22.1408 10.6069Z" fill="url(#paint2_linear_7_1962)"/>
    </g>
    <defs>
        <linearGradient id="paint0_linear_7_1962" x1="11.3714" y1="0.280913" x2="2.6616" y2="9.72298" gradientUnits="userSpaceOnUse">
            <stop offset="0.58" stop-color="#A0A8D4"/>
            <stop offset="0.73" stop-color="#8791C7"/>
            <stop offset="0.91" stop-color="#6470B4"/>
        </linearGradient>
        <linearGradient id="paint1_linear_7_1962" x1="11.5471" y1="23.7255" x2="20.2583" y2="14.2853" gradientUnits="userSpaceOnUse">
            <stop offset="0.58" stop-color="#A0A8D4"/>
            <stop offset="0.73" stop-color="#8791C7"/>
            <stop offset="0.91" stop-color="#6470B4"/>
        </linearGradient>
        <linearGradient id="paint2_linear_7_1962" x1="11.4657" y1="-0.113541" x2="11.4657" y2="24.0744" gradientUnits="userSpaceOnUse">
            <stop stop-color="#513EFF"/>
            <stop offset="0.18" stop-color="#5157FF"/>
            <stop offset="0.57" stop-color="#5298FF"/>
            <stop offset="1" stop-color="#52E5FF"/>
        </linearGradient>
        <clipPath id="clip0_7_1962">
            <rect width="21.5368" height="24" fill="white" transform="translate(0.69725)"/>
        </clipPath>
    </defs>
</svg>
