<svg width="375" height="395" viewBox="0 0 375 395" fill="none" xmlns="http://www.w3.org/2000/svg">
    <path d="M365.862 130.33C369.352 137.191 368.086 146.117 362.701 156.436C357.32 166.747 347.851 178.396 335.04 190.655C309.418 215.17 270.47 242.085 224.267 265.58C178.064 289.075 133.372 304.694 98.4685 310.957C81.0153 314.089 66.0244 314.879 54.5219 313.153C43.0118 311.426 35.0532 307.191 31.564 300.329C28.0748 293.468 29.3403 284.541 34.7249 274.223C40.106 263.911 49.5748 252.263 62.3867 240.004C88.0082 215.489 126.956 188.574 173.159 165.079C219.362 141.583 264.055 125.964 298.958 119.701C316.411 116.569 331.402 115.78 342.904 117.506C354.415 119.233 362.373 123.468 365.862 130.33Z" stroke="url(#paint0_linear_0_1)" stroke-width="0.5"/>
    <path d="M388.986 84.4612C395.486 94.4902 396.453 107.464 392.588 122.374C388.722 137.284 380.029 154.103 367.251 171.784C341.696 207.146 299.835 245.911 247.722 279.69C195.609 313.468 143.129 335.852 100.415 344.74C79.0577 349.185 60.155 350.252 44.9661 347.693C29.7774 345.134 18.329 338.954 11.8285 328.925C5.32794 318.896 4.36091 305.921 8.22665 291.012C12.0924 276.102 20.7855 259.283 33.5635 241.601C59.1183 206.24 100.979 167.474 153.092 133.696C205.206 99.9174 257.685 77.5342 300.399 68.6456C321.757 64.2011 340.659 63.1334 355.848 65.6926C371.037 68.2518 382.485 74.4322 388.986 84.4612Z" stroke="url(#paint1_linear_0_1)" stroke-width="0.5"/>
    <path d="M447.835 29.9482C456.924 43.971 458.448 62.0162 453.332 82.7075C448.216 103.4 436.469 126.69 419.09 151.131C384.336 200.011 327.124 253.408 255.683 299.713C184.243 346.019 112.139 376.442 53.329 388.208C23.9223 394.092 -2.13453 395.305 -23.1125 391.526C-44.0893 387.747 -59.9392 378.988 -69.0284 364.965C-78.1176 350.942 -79.6418 332.897 -74.5258 312.206C-69.4096 291.513 -57.6622 268.223 -40.2841 243.782C-5.52977 194.902 51.6827 141.506 123.123 95.2C194.564 48.8942 266.667 18.4715 325.477 6.7052C354.884 0.821729 380.941 -0.391839 401.919 3.38713C422.896 7.16586 438.746 15.9255 447.835 29.9482Z" stroke="#895232"/>
    <defs>
        <linearGradient id="paint0_linear_0_1" x1="173.046" y1="164.856" x2="224.38" y2="265.803" gradientUnits="userSpaceOnUse">
            <stop stop-color="#CDCDCD" stop-opacity="0.37"/>
            <stop offset="0.963542" stop-color="#C4C4C4"/>
        </linearGradient>
        <linearGradient id="paint1_linear_0_1" x1="152.956" y1="133.486" x2="247.858" y2="279.9" gradientUnits="userSpaceOnUse">
            <stop stop-color="#FFA471" stop-opacity="0.37"/>
            <stop offset="0.963542" stop-color="#AF89FF"/>
        </linearGradient>
    </defs>
</svg>
