<svg width="26" height="24" viewBox="0 0 26 24" fill="none" xmlns="http://www.w3.org/2000/svg">
    <g clip-path="url(#clip0_7_1970)">
        <path d="M13.3653 0.000658741C6.5031 -0.0692565 0.882113 5.43498 0.806854 12.2984C0.832944 17.6421 4.30053 22.3598 9.39236 23.9793C10.0202 24.0933 10.2486 23.7167 10.2486 23.3855V21.296C6.75496 22.0384 6.01308 19.6519 6.01308 19.6519C5.78061 18.9029 5.28625 18.2623 4.62029 17.8478C3.4787 17.0941 4.71161 17.1055 4.71161 17.1055C5.51136 17.2125 6.21778 17.6795 6.62953 18.373C7.36673 19.6512 8.99165 20.1031 10.2831 19.3893C10.347 18.7637 10.6299 18.1813 11.0822 17.7451C8.29626 17.4367 5.37388 16.3863 5.37388 11.6705C5.3488 10.4404 5.80336 9.24888 6.64124 8.34767C6.25959 7.29158 6.30475 6.12845 6.76667 5.10481C7.22892 4.0815 7.82865 4.77363 10.1918 6.36094C12.2492 5.81266 14.414 5.81266 16.471 6.36094C18.8686 4.77363 19.8961 5.10481 19.8961 5.10481C20.358 6.12845 20.4032 7.29158 20.0216 8.34767C20.8785 9.23215 21.3578 10.4157 21.3571 11.6474C21.3571 16.3745 18.4117 17.4139 15.6489 17.722C16.2613 18.3168 16.5757 19.1548 16.5051 20.0055V23.3741C16.5051 23.7739 16.7336 24.0933 17.3614 23.9679C22.4382 22.3388 25.8927 17.6307 25.9242 12.2984C25.8489 5.43498 20.2279 -0.0692565 13.3653 0.000658741Z" fill="white"/>
    </g>
    <defs>
        <clipPath id="clip0_7_1970">
            <rect width="25.1173" height="24" fill="white" transform="translate(0.806854)"/>
        </clipPath>
    </defs>
</svg>
