<svg width="14" height="14" viewBox="0 0 14 14" fill="none" xmlns="http://www.w3.org/2000/svg">
    <path fill-rule="evenodd" clip-rule="evenodd" d="M9.24571 1.45871C9.61379 1.45871 9.98129 1.51063 10.3307 1.62788C12.4838 2.32788 13.2596 4.69038 12.6115 6.75538C12.244 7.81063 11.6432 8.77371 10.8563 9.56063C9.72988 10.6515 8.49379 11.6198 7.16321 12.454L7.01738 12.542L6.86571 12.4481C5.53046 11.6198 4.28738 10.6515 3.15046 9.55479C2.36879 8.76788 1.76738 7.81063 1.39404 6.75538C0.734877 4.69038 1.51071 2.32788 3.68713 1.61563C3.85629 1.55729 4.03071 1.51646 4.20571 1.49371H4.27571C4.43963 1.46979 4.60238 1.45871 4.76571 1.45871H4.82988C5.19738 1.46979 5.55321 1.53396 5.89796 1.65121H5.93238C5.95571 1.66229 5.97321 1.67454 5.98488 1.68563C6.11379 1.72704 6.23571 1.77371 6.35238 1.83788L6.57404 1.93704C6.62761 1.96561 6.68773 2.00926 6.73969 2.04699C6.77261 2.07089 6.80225 2.09241 6.82488 2.10621C6.8344 2.11183 6.84407 2.11748 6.85383 2.12317C6.90384 2.15237 6.95595 2.18278 6.99988 2.21646C7.64796 1.72121 8.43488 1.45288 9.24571 1.45871ZM10.7974 5.65871C11.0365 5.65229 11.2407 5.46038 11.2582 5.21479V5.14538C11.2757 4.32813 10.7805 3.58788 10.0274 3.30204C9.78821 3.21979 9.52571 3.34871 9.43821 3.59371C9.35654 3.83871 9.48488 4.10704 9.72988 4.19396C10.1038 4.33396 10.354 4.70204 10.354 5.10979V5.12788C10.343 5.26146 10.3832 5.39038 10.4649 5.48954C10.5465 5.58871 10.669 5.64646 10.7974 5.65871Z" fill="#FF6464"/>
</svg>
