<svg width="20" height="20" viewBox="0 0 20 20" fill="none" xmlns="http://www.w3.org/2000/svg">
    <path d="M13.15 1.66666H6.84999C3.69999 1.66666 2.91666 2.50832 2.91666 5.86666V15.25C2.91666 17.4667 4.13332 17.9917 5.60832 16.4083L5.61666 16.4C6.29999 15.675 7.34166 15.7333 7.93332 16.525L8.77499 17.65C9.44999 18.5417 10.5417 18.5417 11.2167 17.65L12.0583 16.525C12.6583 15.725 13.7 15.6667 14.3833 16.4C15.8667 17.9833 17.075 17.4583 17.075 15.2417V5.86666C17.0833 2.50832 16.3 1.66666 13.15 1.66666ZM12.3667 8.32499L11.95 8.74999H11.9417L9.41666 11.275C9.30832 11.3833 9.08332 11.5 8.92499 11.5167L7.79999 11.6833C7.39166 11.7417 7.10832 11.45 7.16666 11.05L7.32499 9.91666C7.34999 9.75832 7.45832 9.54166 7.56666 9.42499L10.1 6.89999L10.5167 6.47499C10.7917 6.19999 11.1 5.99999 11.4333 5.99999C11.7167 5.99999 12.025 6.13332 12.3667 6.47499C13.1167 7.22499 12.875 7.81666 12.3667 8.32499Z" fill="currentColor"/>
</svg>
