<svg width="82" height="40" viewBox="0 0 82 40" fill="none" xmlns="http://www.w3.org/2000/svg">
    <path d="M19.0225 22.5231L20.3963 10.5548H26.8428L23.3025 29.7358H15.1915L13.395 19.0357L11.3078 29.7358H3.54029L0 10.5548H6.4465L7.79392 22.3646L9.90753 10.5548H16.9617L19.0225 22.5231Z" fill="white"/>
    <path d="M39.1316 30C35.0982 30 32.1303 29.1281 30.2281 27.3844C28.3258 25.6231 27.3747 23.1572 27.3747 19.9868C27.3747 16.8516 28.317 14.4033 30.2017 12.642C32.1039 10.8807 35.0806 10 39.1316 10C43.2003 10 46.177 10.8807 48.0616 12.642C49.9639 14.4033 50.915 16.8516 50.915 19.9868C50.915 23.1748 49.9727 25.6407 48.0881 27.3844C46.2034 29.1281 43.2179 30 39.1316 30ZM39.1316 24.6103C41.0867 24.6103 42.4958 24.2404 43.3589 23.5007C44.2219 22.7433 44.6534 21.572 44.6534 19.9868C44.6534 18.4368 44.2219 17.2831 43.3589 16.5258C42.4958 15.7684 41.0867 15.3897 39.1316 15.3897C37.1942 15.3897 35.7939 15.7684 34.9309 16.5258C34.0678 17.2831 33.6363 18.4368 33.6363 19.9868C33.6363 21.5544 34.0678 22.7169 34.9309 23.4742C35.7939 24.2316 37.1942 24.6103 39.1316 24.6103Z" fill="white"/>
    <path d="M70.7274 22.5231L72.1012 10.5548H78.5477L75.0074 29.7358H66.8965L65.0999 19.0357L63.0127 29.7358H55.2452L51.7049 10.5548H58.1514L59.4988 22.3646L61.6124 10.5548H68.6666L70.7274 22.5231Z" fill="white"/>
</svg>
