<svg width="33" height="32" viewBox="0 0 33 32" fill="none" xmlns="http://www.w3.org/2000/svg">
<path d="M24.2233 14.3867V19.72C24.2233 20.0667 24.21 20.4 24.17 20.72C23.8633 24.32 21.7433 26.1066 17.8367 26.1066H17.3033C16.97 26.1066 16.65 26.2667 16.45 26.5333L14.85 28.6667C14.1433 29.6133 12.9967 29.6133 12.29 28.6667L10.69 26.5333C10.5166 26.3067 10.13 26.1066 9.83666 26.1066H9.30333C5.05 26.1066 2.91666 25.0533 2.91666 19.72V14.3867C2.91666 10.48 4.71667 8.36001 8.30333 8.05334C8.62333 8.01334 8.95667 8 9.30333 8H17.8367C22.09 8 24.2233 10.1333 24.2233 14.3867Z" fill="white" stroke="white" stroke-width="1.2" stroke-miterlimit="10" stroke-linecap="round" stroke-linejoin="round"/>
<path d="M29.5567 9.0533V14.3866C29.5567 18.3066 27.7567 20.4133 24.17 20.72C24.21 20.4 24.2233 20.0666 24.2233 19.72V14.3866C24.2233 10.1333 22.09 7.99996 17.8367 7.99996H9.30334C8.95668 7.99996 8.62334 8.0133 8.30334 8.0533C8.61001 4.46664 10.73 2.66663 14.6367 2.66663H23.17C27.4233 2.66663 29.5567 4.79997 29.5567 9.0533Z" stroke="white" stroke-width="1.2" stroke-miterlimit="10" stroke-linecap="round" stroke-linejoin="round"/>
<path d="M18.244 17.6667H18.256" stroke="black" stroke-width="1.2" stroke-linecap="round" stroke-linejoin="round"/>
<path d="M13.5773 17.6667H13.5893" stroke="black" stroke-width="1.2" stroke-linecap="round" stroke-linejoin="round"/>
<path d="M8.91067 17.6667H8.92267" stroke="black" stroke-width="1.2" stroke-linecap="round" stroke-linejoin="round"/>
</svg>
