<svg width="33" height="32" viewBox="0 0 33 32" fill="none" xmlns="http://www.w3.org/2000/svg">
<path d="M19.2234 4.68002L21.57 9.37335C21.89 10.0267 22.7434 10.6534 23.4634 10.7734L27.7167 11.48C30.4367 11.9334 31.0767 13.9067 29.1167 15.8534L25.81 19.16C25.25 19.72 24.9434 20.8 25.1167 21.5734L26.0634 25.6667C26.81 28.9067 25.09 30.16 22.2234 28.4667L18.2367 26.1067C17.5167 25.68 16.33 25.68 15.5967 26.1067L11.61 28.4667C8.75669 30.16 7.02335 28.8934 7.77002 25.6667L8.71669 21.5734C8.89002 20.8 8.58335 19.72 8.02335 19.16L4.71669 15.8534C2.77002 13.9067 3.39669 11.9334 6.11669 11.48L10.37 10.7734C11.0767 10.6534 11.93 10.0267 12.25 9.37335L14.5967 4.68002C15.8767 2.13335 17.9567 2.13335 19.2234 4.68002Z" stroke="white" stroke-width="1.5" stroke-linecap="round" stroke-linejoin="round"/>
</svg>
