<svg width="28" height="24" viewBox="0 0 28 24" fill="none" xmlns="http://www.w3.org/2000/svg">
    <g clip-path="url(#clip0_7_1973)">
        <path d="M25.0866 6.83957C25.0866 6.57772 25.0815 6.3186 25.0699 6.06118C26.1899 5.22654 27.1616 4.18222 27.9301 2.98651C26.8865 3.456 25.776 3.76013 24.6383 3.88696C25.822 3.15835 26.73 1.99333 27.1589 0.595107C26.0505 1.26711 24.8244 1.74785 23.5206 1.99845C22.4766 0.810245 20.986 0.053341 19.3382 0.0250423C16.1735 -0.0271227 13.6079 2.64727 13.6079 5.99777C13.6079 6.47407 13.6577 6.93571 13.7566 7.38201C8.9908 7.07516 4.76781 4.59477 1.94306 0.85525C1.45005 1.75126 1.16741 2.79831 1.16741 3.92037C1.16741 6.04277 2.17934 7.92889 3.71633 9.04209C2.77532 8.99947 1.89397 8.71444 1.1207 8.24734V8.32508C1.1207 11.2913 3.09649 13.7768 5.71838 14.3568C5.23764 14.4935 4.73099 14.5644 4.20934 14.562C3.84726 14.5603 3.48585 14.5204 3.13195 14.4441C3.86021 16.875 5.9775 18.651 8.48415 18.71C6.52233 20.3367 4.05114 21.3084 1.36788 21.3015C0.905217 21.3015 0.448005 21.2705 0 21.2143C2.53699 22.9545 5.54824 23.9681 8.78554 23.9681C19.3239 23.9701 25.0866 14.798 25.0866 6.83957Z" fill="white"/>
    </g>
    <defs>
        <clipPath id="clip0_7_1973">
            <rect width="27.9564" height="24" fill="white"/>
        </clipPath>
    </defs>
</svg>
