<svg width="14" height="15" viewBox="0 0 14 15" fill="none" xmlns="http://www.w3.org/2000/svg">
    <path d="M12.577 6.76385L11.7837 5.84219C11.632 5.66719 11.5095 5.34052 11.5095 5.10719V4.11552C11.5095 3.49719 11.002 2.98969 10.3837 2.98969H9.392C9.16451 2.98969 8.83201 2.86719 8.657 2.71552L7.73534 1.92219C7.33284 1.57802 6.67367 1.57802 6.26534 1.92219L5.3495 2.72135C5.17451 2.86719 4.84201 2.98969 4.61451 2.98969H3.60534C2.987 2.98969 2.47951 3.49719 2.47951 4.11552V5.11302C2.47951 5.34052 2.35701 5.66719 2.21117 5.84219L1.42367 6.76969C1.08534 7.17219 1.08534 7.82552 1.42367 8.22802L2.21117 9.15552C2.35701 9.33052 2.47951 9.65719 2.47951 9.88469V10.8822C2.47951 11.5005 2.987 12.008 3.60534 12.008H4.61451C4.84201 12.008 5.17451 12.1305 5.3495 12.2822L6.27117 13.0755C6.67367 13.4197 7.33284 13.4197 7.74117 13.0755L8.66284 12.2822C8.83784 12.1305 9.16451 12.008 9.39784 12.008H10.3895C11.0078 12.008 11.5153 11.5005 11.5153 10.8822V9.89052C11.5153 9.66302 11.6378 9.33052 11.7895 9.15552L12.5828 8.23385C12.9212 7.83135 12.9212 7.16635 12.577 6.76385ZM9.427 6.39635L6.6095 9.21385C6.52784 9.29552 6.41701 9.34219 6.30034 9.34219C6.18367 9.34219 6.07284 9.29552 5.99117 9.21385L4.5795 7.80219C4.41034 7.63302 4.41034 7.35302 4.5795 7.18385C4.74867 7.01469 5.02867 7.01469 5.19784 7.18385L6.30034 8.28635L8.80867 5.77802C8.97784 5.60885 9.25784 5.60885 9.427 5.77802C9.59617 5.94719 9.59617 6.22719 9.427 6.39635Z" fill="#00CD88"/>
</svg>
